<svg width="80" height="81" viewBox="0 0 80 81" fill="none" xmlns="http://www.w3.org/2000/svg">
<rect y="0.5" width="80" height="80" rx="15" fill="#100E33" fill-opacity="0.06"/>
<rect y="0.5" width="80" height="80" rx="11.5385" fill="white"/>
<path fill-rule="evenodd" clip-rule="evenodd" d="M62.1121 29.3079V63.2774H28.1426V29.3079H62.1121ZM42.4403 37.8003H39.132L32.8511 54.785H35.8357L37.0215 51.4646H44.5402L45.7006 54.785H48.865L42.4403 37.8003ZM54.163 37.8003H51.1903V54.785H54.163V37.8003ZM40.7611 40.6499L43.722 49.1234H37.8472L40.7611 40.6499ZM64.9429 54.785H70.6045V60.4466H64.9429V54.785ZM30.9734 66.1082H36.635V71.7698H30.9734V66.1082ZM42.2966 66.1082H47.9582V71.7698H42.2966V66.1082ZM30.9734 20.8156H36.635V26.4771H30.9734V20.8156ZM53.6197 66.1082H59.2813V71.7698H53.6197V66.1082ZM42.2966 20.8156H47.9582V26.4771H42.2966V20.8156ZM53.6197 20.8156H59.2813V26.4771H53.6197V20.8156ZM64.9429 43.4619H70.6045V49.1234H64.9429V43.4619ZM19.6503 54.785H25.3118V60.4466H19.6503V54.785ZM64.9429 32.1387H70.6045V37.8003H64.9429V32.1387ZM19.6503 43.4619H25.3118V49.1234H19.6503V43.4619ZM19.6503 32.1387H25.3118V37.8003H19.6503V32.1387Z" fill="#100E33"/>
</svg>
