<svg width="615" height="539" viewBox="0 0 615 539" fill="none" xmlns="http://www.w3.org/2000/svg">
<g filter="url(#filter0_d_71_5466)">
<path d="M113.65 484.493H133.9C142.278 484.493 149.069 477.702 149.069 469.324V349.748C149.069 341.371 155.861 334.579 164.238 334.579H293.655C302.032 334.579 308.824 327.788 308.824 319.41V318.646" stroke="#82848F" stroke-width="1.01126" stroke-dasharray="3.57 3.57"/>
<path d="M503.998 454.156H483.747C475.37 454.156 468.579 447.364 468.579 438.987V346.834C468.579 338.456 461.787 331.665 453.41 331.665H321.842C314.652 331.665 308.824 325.836 308.824 318.646V318.646" stroke="#82848F" stroke-width="1.01126" stroke-dasharray="3.57 3.57"/>
<path d="M98.5336 91.9009H121.536C129.914 91.9009 136.705 98.6922 136.705 107.07V190.082C136.705 198.459 143.497 205.251 151.874 205.251H296.829C303.483 205.251 308.876 210.644 308.876 217.297V217.297" stroke="#82848F" stroke-width="1.01126" stroke-dasharray="3.57 3.57"/>
<path d="M504.05 51.4507H483.8C475.422 51.4507 468.631 58.242 468.631 66.6196V186.196C468.631 194.573 461.839 201.365 453.462 201.365H324.045C315.668 201.365 308.876 208.156 308.876 216.534V217.298" stroke="#82848F" stroke-width="1.01126" stroke-dasharray="3.57 3.57"/>
<rect x="21.6776" y="51.4507" width="80.901" height="80.901" rx="15.1689" fill="#100E33" fill-opacity="0.06"/>
<rect x="21.6776" y="51.4507" width="80.901" height="80.901" rx="11.6684" fill="white"/>
<path d="M80.7929 84.6565L66.1928 72.9848C63.9386 71.173 60.2938 71.173 58.0606 72.9638L43.4605 84.6565C41.8172 85.9627 40.7638 88.7227 41.1219 90.7873L43.924 107.557C44.4296 110.549 47.2949 112.972 50.3286 112.972H73.9248C76.9375 112.972 79.8238 110.528 80.3294 107.557L83.1315 90.7873C83.4686 88.7227 82.4152 85.9627 80.7929 84.6565ZM56.6069 103.239C55.4271 103.239 54.5001 102.29 54.5001 101.132C54.5001 99.973 55.4482 99.0249 56.6069 99.0249C57.7656 99.0249 58.7137 99.973 58.7137 101.132C58.7137 102.29 57.7656 103.239 56.6069 103.239ZM62.9484 102.691C62.9273 102.691 62.9273 102.691 62.9062 102.691C62.0424 102.691 61.3472 101.995 61.3261 101.153C61.2629 98.3086 59.3879 96.4336 56.5437 96.3703C55.6799 96.3493 54.9847 95.633 55.0057 94.7481C55.0268 93.8843 55.722 93.2102 56.5858 93.2102C56.6069 93.2102 56.6069 93.2102 56.628 93.2102C61.1576 93.3155 64.4021 96.5389 64.4863 101.069C64.5074 101.953 63.8332 102.691 62.9484 102.691ZM69.2477 102.691C68.3628 102.691 67.6676 101.995 67.6465 101.132C67.6255 99.7412 67.3937 98.4139 66.9724 97.1709C65.8979 94.095 63.6015 91.8197 60.5256 90.7241C59.2825 90.2817 57.9553 90.05 56.5648 90.05C55.701 90.05 54.9847 89.3336 55.0057 88.4488C55.0057 87.5849 55.722 86.8897 56.5858 86.8897H56.6069C58.3556 86.9107 60.0199 87.2057 61.579 87.7535C65.5608 89.1651 68.5314 92.1357 69.9429 96.1175C70.4907 97.6766 70.7857 99.362 70.8067 101.09C70.8278 101.974 70.1325 102.691 69.2477 102.691Z" fill="#274DF1"/>
<rect x="15.0192" y="221.77" width="80.901" height="80.901" rx="15.1689" fill="#100E33" fill-opacity="0.06"/>
<rect x="15.0192" y="221.77" width="80.901" height="80.901" rx="11.6684" fill="white"/>
<path d="M73.0483 256.256C73.0483 256.246 73.0483 256.236 73.0483 256.226V256.216C73.0483 255.94 72.91 255.693 72.673 255.545L55.8845 245.086C55.8845 245.086 55.8746 245.086 55.8746 245.076C55.845 245.057 55.8252 245.047 55.7956 245.037C55.7956 245.037 55.7857 245.037 55.7857 245.027C55.7561 245.017 55.7265 245.007 55.687 244.997C55.6771 244.997 55.6771 244.997 55.6672 244.997C55.6376 244.988 55.6178 244.988 55.5882 244.978C55.5783 244.978 55.5685 244.978 55.5685 244.978C55.5388 244.978 55.4993 244.968 55.4697 244.968C55.4401 244.968 55.4006 244.968 55.3709 244.978C55.3611 244.978 55.3512 244.978 55.3512 244.978C55.3216 244.978 55.3018 244.988 55.2722 244.997C55.2623 244.997 55.2623 244.997 55.2524 244.997C55.2228 245.007 55.1932 245.017 55.1537 245.027C55.1537 245.027 55.1438 245.027 55.1438 245.037C55.1142 245.047 55.0944 245.067 55.0648 245.076C55.0648 245.076 55.0549 245.076 55.0549 245.086L38.2664 255.545C38.0392 255.693 37.8911 255.94 37.8911 256.216V256.226C37.8911 256.236 37.8911 256.246 37.8911 256.256C37.901 256.483 37.8911 256.828 37.8812 257.263C37.8417 259.781 37.743 265.035 39.8662 270.407C42.5129 277.113 47.6778 281.725 55.2327 284.115C55.2722 284.125 55.3018 284.134 55.3413 284.144C55.3512 284.144 55.3611 284.144 55.3611 284.144C55.4006 284.144 55.4302 284.154 55.4697 284.154C55.5092 284.154 55.5388 284.154 55.5783 284.144C55.5882 284.144 55.5981 284.144 55.5981 284.144C55.6376 284.134 55.6672 284.134 55.7067 284.115C63.2517 281.725 68.4166 277.113 71.0633 270.407C73.1865 265.035 73.0977 259.781 73.0483 257.263C73.0483 256.828 73.0483 256.483 73.0483 256.256ZM54.6796 282.268C44.6757 278.703 41.2093 271.395 40.0341 265.351H54.6796V282.268ZM71.1719 263.771H56.2597V247.18L71.4682 256.651C71.4682 256.838 71.4781 257.046 71.4781 257.283C71.5077 258.744 71.5472 261.075 71.1719 263.771Z" fill="#100E33"/>
<path d="M78.9737 255.219L70.1153 249.53V243.358C70.1153 242.835 69.6906 242.4 69.1573 242.4H66.1354C65.612 242.4 65.1775 242.825 65.1775 243.358V246.37L55.8944 240.415C55.6475 240.257 55.3413 240.247 55.0846 240.386C55.055 240.405 55.0155 240.425 54.9858 240.445L31.9658 255.229C31.6004 255.466 31.4917 255.95 31.7288 256.325C31.8769 256.562 32.1337 256.69 32.3904 256.69C32.5386 256.69 32.6867 256.651 32.8151 256.562L55.4697 242.015L78.1145 256.552C78.4799 256.789 78.9737 256.68 79.2107 256.315C79.4477 255.95 79.3391 255.456 78.9737 255.219Z" fill="#274DF1"/>
<rect x="503.997" y="413.705" width="80.901" height="80.901" rx="15.1689" fill="#100E33" fill-opacity="0.06"/>
<rect x="503.997" y="413.705" width="80.901" height="80.901" rx="11.6684" fill="white"/>
<path d="M546.255 441.436H541.791C541.268 441.436 540.814 441.811 540.705 442.325C540.695 442.394 540.685 442.463 540.685 442.532V447.341H547.361V442.532C547.361 441.93 546.867 441.436 546.255 441.436Z" fill="#274DF1"/>
<path d="M544.023 450.205C542.976 450.205 542.127 451.055 542.127 452.101C542.127 452.151 542.127 452.2 542.137 452.25C542.137 452.269 542.137 452.289 542.137 452.299C542.137 452.329 542.147 452.368 542.147 452.398C542.246 453.03 542.66 453.563 543.223 453.82V455.252C543.223 455.686 543.579 456.042 544.013 456.042C544.448 456.042 544.803 455.686 544.803 455.252V453.81C545.396 453.533 545.821 452.97 545.9 452.289C545.9 452.269 545.9 452.25 545.9 452.24C545.909 452.19 545.909 452.141 545.909 452.092C545.919 451.055 545.07 450.205 544.023 450.205Z" fill="#100E33"/>
<path d="M564.179 470.184V466.925C564.179 466.49 563.824 466.135 563.389 466.135H554.403V462.263H556.743C561.533 462.263 565.414 458.382 565.414 453.593C565.414 449.445 562.491 445.969 558.6 445.119C558.61 444.971 558.619 444.833 558.619 444.685C558.619 441.772 556.259 439.411 553.346 439.411C552.684 439.411 552.042 439.53 551.46 439.757C551.46 439.638 551.469 439.53 551.469 439.411C551.469 435.135 548.003 431.679 543.737 431.679C539.876 431.679 536.676 434.503 536.093 438.206C535.639 438.157 535.175 438.127 534.711 438.127C528.045 438.127 522.643 443.529 522.643 450.195C522.643 456.792 527.936 462.145 534.503 462.263V466.135H525.516C525.082 466.135 524.726 466.49 524.726 466.925V470.184C523.304 470.539 522.248 471.823 522.248 473.354C522.248 475.161 523.719 476.623 525.516 476.623C527.314 476.623 528.785 475.151 528.785 473.354C528.785 471.823 527.729 470.529 526.306 470.184V467.715H535.293C535.728 467.715 536.083 467.359 536.083 466.925V462.263H537.337H538.957V470.174C537.535 470.529 536.478 471.813 536.478 473.344C536.478 475.151 537.95 476.613 539.747 476.613C541.545 476.613 543.016 475.141 543.016 473.344C543.016 471.813 541.959 470.519 540.537 470.174V462.263H544.665V466.243C544.665 466.678 545.021 467.033 545.455 467.033H548.981V470.174C547.559 470.529 546.502 471.813 546.502 473.344C546.502 475.151 547.974 476.613 549.771 476.613C551.568 476.613 553.04 475.141 553.04 473.344C553.04 471.813 551.983 470.519 550.561 470.174V466.243C550.561 465.809 550.205 465.453 549.771 465.453H546.245V462.263H552.605H552.822V466.925C552.822 467.359 553.178 467.715 553.612 467.715H562.599V470.184C561.177 470.539 560.121 471.823 560.121 473.354C560.121 475.161 561.592 476.623 563.389 476.623C565.187 476.623 566.658 475.151 566.658 473.354C566.658 471.823 565.601 470.539 564.179 470.184ZM550.284 456.743C550.284 457.503 549.672 458.116 548.912 458.116H539.135C538.374 458.116 537.762 457.503 537.762 456.743V448.714C537.762 447.964 538.365 447.351 539.105 447.341V442.532C539.105 442.364 539.125 442.186 539.155 442.018C539.401 440.764 540.508 439.846 541.791 439.846H546.255C547.737 439.846 548.941 441.051 548.941 442.532V447.341C549.692 447.361 550.284 447.964 550.284 448.714V456.743Z" fill="#274DF1"/>
<g filter="url(#filter1_f_71_5466)">
<rect x="257.131" y="214.434" width="105.171" height="105.171" rx="15.1689" fill="#100E33" fill-opacity="0.06"/>
</g>
<rect x="257.131" y="214.434" width="105.171" height="105.171" rx="15.1689" fill="white"/>
<path d="M284.693 280.907V252.592H289.547V280.907H284.693ZM303.775 281.393C301.833 281.393 300.081 280.948 298.516 280.058C296.979 279.141 295.766 277.887 294.876 276.296C294.013 274.678 293.581 272.831 293.581 270.754C293.581 268.624 294.026 266.763 294.916 265.172C295.806 263.554 297.02 262.3 298.557 261.41C300.121 260.493 301.874 260.035 303.815 260.035C305.757 260.035 307.496 260.493 309.034 261.41C310.598 262.3 311.811 263.54 312.674 265.132C313.564 266.723 314.009 268.583 314.009 270.714C314.009 272.844 313.564 274.705 312.674 276.296C311.784 277.887 310.557 279.141 308.993 280.058C307.456 280.948 305.717 281.393 303.775 281.393ZM303.775 277.226C304.746 277.226 305.622 276.984 306.404 276.498C307.213 276.013 307.86 275.285 308.346 274.314C308.831 273.343 309.074 272.143 309.074 270.714C309.074 269.284 308.831 268.098 308.346 267.154C307.887 266.183 307.254 265.455 306.445 264.97C305.663 264.484 304.786 264.242 303.815 264.242C302.872 264.242 301.995 264.484 301.186 264.97C300.377 265.455 299.73 266.183 299.245 267.154C298.759 268.098 298.516 269.284 298.516 270.714C298.516 272.143 298.759 273.343 299.245 274.314C299.73 275.285 300.364 276.013 301.146 276.498C301.955 276.984 302.831 277.226 303.775 277.226ZM324.707 280.907V256.516H316.374V252.592H337.853V256.516H329.52V280.907H324.707Z" fill="#1F1B6A"/>
<path d="M100.386 267.317L257.131 267.317" stroke="#82848F" stroke-width="1.01126" stroke-dasharray="3.57 3.57"/>
<rect x="27.5225" y="439.684" width="80.901" height="80.901" rx="15.1689" fill="#100E33" fill-opacity="0.06"/>
<rect x="27.5225" y="439.684" width="80.901" height="80.901" rx="11.6684" fill="white"/>
<g clip-path="url(#clip0_71_5466)">
<path d="M75.8735 467.81V462.754C75.8735 458.329 72.3973 454.853 67.973 454.853C63.5488 454.853 60.0725 458.329 60.0725 462.754V467.81C58.1764 468.442 56.9124 470.18 56.9124 472.234V478.555C56.9124 481.241 58.9665 483.295 61.6526 483.295H74.2934C76.9796 483.295 79.0337 481.241 79.0337 478.555V472.234C79.0337 470.18 77.7696 468.442 75.8735 467.81ZM69.5531 476.975C69.5531 477.923 68.9211 478.555 67.973 478.555C67.025 478.555 66.3929 477.923 66.3929 476.975V473.814C66.3929 472.866 67.025 472.234 67.973 472.234C68.9211 472.234 69.5531 472.866 69.5531 473.814V476.975ZM72.7133 467.494H63.2327V462.754C63.2327 460.068 65.2869 458.013 67.973 458.013C70.6592 458.013 72.7133 460.068 72.7133 462.754V467.494Z" fill="#274DF1"/>
<path d="M71.9231 491.354L69.553 492.144V489.615C69.553 488.667 68.9209 488.035 67.9729 488.035C67.0248 488.035 66.3928 488.667 66.3928 489.615V492.144L64.0226 491.354C63.2326 491.038 62.2845 491.512 61.9685 492.302C61.6525 493.092 62.1265 494.04 62.9166 494.356L65.2867 495.146L63.7066 497.2C63.2326 497.832 63.3906 498.938 64.0226 499.412C64.3386 499.57 64.6547 499.728 64.9707 499.728C65.4447 499.728 65.9187 499.57 66.2348 499.096L67.8149 497.042L69.395 499.096C69.711 499.57 70.185 499.728 70.659 499.728C70.9751 499.728 71.2911 499.57 71.6071 499.412C72.2391 498.938 72.3971 497.832 71.9231 497.2L70.343 495.146L72.7132 494.356C73.5032 494.04 73.9772 493.25 73.6612 492.302C73.6612 491.512 72.8712 491.196 71.9231 491.354Z" fill="#274DF1"/>
<path d="M89.7783 492.46C89.4622 491.67 88.6722 491.196 87.7241 491.512L85.354 492.144V489.615C85.354 488.667 84.7219 488.035 83.7739 488.035C82.8258 488.035 82.1938 488.667 82.1938 489.615V492.144L79.8236 491.354C79.0336 491.038 78.0855 491.512 77.7695 492.302C77.4535 493.092 77.9275 494.04 78.7176 494.356L81.0877 495.146L79.5076 497.2C79.0336 497.832 79.1916 498.938 79.8236 499.412C80.1397 499.57 80.4557 499.728 80.7717 499.728C81.2457 499.728 81.7198 499.57 82.0358 499.096L83.6159 497.042L85.196 499.096C85.512 499.57 85.986 499.728 86.4601 499.728C86.7761 499.728 87.0921 499.57 87.4081 499.412C88.0402 498.938 88.1982 497.832 87.7241 497.2L86.144 495.146L88.5142 494.356C89.6203 494.198 90.0943 493.25 89.7783 492.46Z" fill="#274DF1"/>
<path d="M56.1222 491.354L53.7521 492.144V489.615C53.7521 488.667 53.12 488.035 52.172 488.035C51.2239 488.035 50.5919 488.667 50.5919 489.615V492.144L48.2217 491.354C47.4317 491.038 46.4836 491.512 46.1676 492.302C45.8516 493.25 46.3256 494.198 47.1156 494.356L49.4858 495.146L47.9057 497.2C47.4317 497.832 47.5897 498.938 48.2217 499.412C48.5377 499.57 48.8538 499.728 49.1698 499.728C49.6438 499.728 50.1178 499.57 50.4339 499.096L52.014 497.042L53.7521 499.096C54.0681 499.57 54.5421 499.728 55.0161 499.728C55.3322 499.728 55.6482 499.57 55.9642 499.412C56.5962 498.938 56.7542 497.832 56.2802 497.2L54.7001 495.146L57.2283 494.356C58.0183 494.04 58.4924 493.25 58.1763 492.302C57.8603 491.512 57.0703 491.196 56.1222 491.354Z" fill="#274DF1"/>
</g>
<path d="M519.048 267.02H362.303" stroke="#82848F" stroke-width="1.01126" stroke-dasharray="3.57 3.57"/>
<rect x="519.048" y="226.569" width="80.901" height="80.901" rx="15.1689" fill="#100E33" fill-opacity="0.06"/>
<rect x="519.048" y="226.569" width="80.901" height="80.901" rx="11.6684" fill="white"/>
<path d="M550.63 261.677H570.945V251.12C570.945 249.461 569.601 248.118 567.942 248.118H539.629C537.97 248.118 536.627 249.461 536.627 251.12V256.374H550.63V261.677ZM563.311 251.663C565.088 251.663 566.54 253.105 566.54 254.893C566.54 256.68 565.098 258.122 563.311 258.122C561.523 258.122 560.091 256.68 560.091 254.893C560.091 253.105 561.533 251.663 563.311 251.663Z" fill="#274DF1"/>
<path d="M574.342 256.374V265.46C574.342 267.257 572.88 268.719 571.083 268.719H568.229C568.229 270.447 567.34 271.968 565.997 272.847L567.271 275.78C566.046 275.898 564.891 276.402 563.962 277.212L562.373 273.548C560.101 273.113 558.393 271.118 558.393 268.719H543.451C541.653 268.719 540.192 267.257 540.192 265.46V257.954H549.05V263.257H572.525V256.374H574.342Z" fill="#100E33"/>
<path d="M538.691 260.176H540.192V264.917H538.691C537.377 264.917 536.321 263.86 536.321 262.546C536.321 261.895 536.587 261.302 537.012 260.877C537.437 260.453 538.039 260.176 538.691 260.176Z" fill="#100E33"/>
<path d="M582.677 271.582V280.836C581.077 280.836 579.665 280.026 578.835 278.782L573.7 281.023C573.572 279.799 573.068 278.643 572.258 277.725L578.174 275.137C578.648 273.103 580.484 271.582 582.677 271.582Z" fill="#100E33"/>
<path d="M570.708 278.407C569.967 277.755 569.009 277.35 567.942 277.32C567.913 277.32 567.873 277.32 567.844 277.32C566.57 277.32 565.424 277.873 564.634 278.752C563.953 279.513 563.538 280.52 563.538 281.616C563.538 283.996 565.464 285.922 567.844 285.922C570.194 285.922 572.1 284.036 572.149 281.705C572.149 281.675 572.149 281.646 572.149 281.616C572.149 280.342 571.586 279.197 570.708 278.407Z" fill="#274DF1"/>
<rect x="506.072" y="11" width="80.901" height="80.901" rx="15.1689" fill="#100E33" fill-opacity="0.06"/>
<rect x="506.072" y="11" width="80.901" height="80.901" rx="11.6684" fill="white"/>
<path fill-rule="evenodd" clip-rule="evenodd" d="M561.692 36.2815V66.6194H531.354V36.2815H561.692ZM544.123 43.866H541.168L535.559 59.0349H538.225L539.284 56.0695H545.998L547.035 59.0349H549.861L544.123 43.866ZM554.592 43.866H551.938V59.0349H554.592V43.866ZM542.623 46.4109L545.268 53.9785H540.021L542.623 46.4109ZM564.22 59.0349H569.276V64.0912H564.22V59.0349ZM533.882 69.1475H538.938V74.2038H533.882V69.1475ZM543.995 69.1475H549.051V74.2038H543.995V69.1475ZM533.882 28.697H538.938V33.7533H533.882V28.697ZM554.107 69.1475H559.164V74.2038H554.107V69.1475ZM543.995 28.697H549.051V33.7533H543.995V28.697ZM554.107 28.697H559.164V33.7533H554.107V28.697ZM564.22 48.9223H569.276V53.9786H564.22V48.9223ZM523.769 59.0349H528.826V64.0912H523.769V59.0349ZM564.22 38.8096H569.276V43.866H564.22V38.8096ZM523.769 48.9223H528.826V53.9786H523.769V48.9223ZM523.769 38.8096H528.826V43.866H523.769V38.8096Z" fill="#274DF1"/>
</g>
<path d="M113.65 484.493H133.9C142.278 484.493 149.069 477.702 149.069 469.324V349.748C149.069 341.371 155.861 334.579 164.238 334.579H293.655C302.032 334.579 308.824 327.788 308.824 319.41V318.646" stroke="#82848F" stroke-width="1.01126" stroke-dasharray="3.57 3.57"/>
<path d="M503.998 454.156H483.747C475.37 454.156 468.579 447.364 468.579 438.987V346.834C468.579 338.456 461.787 331.665 453.41 331.665H321.842C314.652 331.665 308.824 325.836 308.824 318.646V318.646" stroke="#82848F" stroke-width="1.01126" stroke-dasharray="3.57 3.57"/>
<path d="M98.5336 91.9009H121.536C129.914 91.9009 136.705 98.6922 136.705 107.07V190.082C136.705 198.459 143.497 205.251 151.874 205.251H296.829C303.483 205.251 308.876 210.644 308.876 217.297V217.297" stroke="#82848F" stroke-width="1.01126" stroke-dasharray="3.57 3.57"/>
<path d="M504.05 51.4507H483.8C475.422 51.4507 468.631 58.242 468.631 66.6196V186.196C468.631 194.573 461.839 201.365 453.462 201.365H324.045C315.668 201.365 308.876 208.156 308.876 216.534V217.298" stroke="#82848F" stroke-width="1.01126" stroke-dasharray="3.57 3.57"/>
<rect x="21.6776" y="51.4507" width="80.901" height="80.901" rx="15.1689" fill="#100E33" fill-opacity="0.06"/>
<rect x="21.6776" y="51.4507" width="80.901" height="80.901" rx="11.6684" fill="white"/>
<path d="M80.7929 84.6565L66.1928 72.9848C63.9386 71.173 60.2938 71.173 58.0606 72.9638L43.4605 84.6565C41.8172 85.9627 40.7638 88.7227 41.1219 90.7873L43.924 107.557C44.4296 110.549 47.2949 112.972 50.3286 112.972H73.9248C76.9375 112.972 79.8238 110.528 80.3294 107.557L83.1315 90.7873C83.4686 88.7227 82.4152 85.9627 80.7929 84.6565ZM56.6069 103.239C55.4271 103.239 54.5001 102.29 54.5001 101.132C54.5001 99.973 55.4482 99.0249 56.6069 99.0249C57.7656 99.0249 58.7137 99.973 58.7137 101.132C58.7137 102.29 57.7656 103.239 56.6069 103.239ZM62.9484 102.691C62.9273 102.691 62.9273 102.691 62.9062 102.691C62.0424 102.691 61.3472 101.995 61.3261 101.153C61.2629 98.3086 59.3879 96.4336 56.5437 96.3703C55.6799 96.3493 54.9847 95.633 55.0057 94.7481C55.0268 93.8843 55.722 93.2102 56.5858 93.2102C56.6069 93.2102 56.6069 93.2102 56.628 93.2102C61.1576 93.3155 64.4021 96.5389 64.4863 101.069C64.5074 101.953 63.8332 102.691 62.9484 102.691ZM69.2477 102.691C68.3628 102.691 67.6676 101.995 67.6465 101.132C67.6255 99.7412 67.3937 98.4139 66.9724 97.1709C65.8979 94.095 63.6015 91.8197 60.5256 90.7241C59.2825 90.2817 57.9553 90.05 56.5648 90.05C55.701 90.05 54.9847 89.3336 55.0057 88.4488C55.0057 87.5849 55.722 86.8897 56.5858 86.8897H56.6069C58.3556 86.9107 60.0199 87.2057 61.579 87.7535C65.5608 89.1651 68.5314 92.1357 69.9429 96.1175C70.4907 97.6766 70.7857 99.362 70.8067 101.09C70.8278 101.974 70.1325 102.691 69.2477 102.691Z" fill="#274DF1"/>
<rect x="15.0192" y="221.77" width="80.901" height="80.901" rx="15.1689" fill="#100E33" fill-opacity="0.06"/>
<rect x="15.0192" y="221.77" width="80.901" height="80.901" rx="11.6684" fill="white"/>
<path d="M73.0483 256.256C73.0483 256.246 73.0483 256.236 73.0483 256.226V256.216C73.0483 255.94 72.91 255.693 72.673 255.545L55.8845 245.086C55.8845 245.086 55.8746 245.086 55.8746 245.076C55.845 245.057 55.8252 245.047 55.7956 245.037C55.7956 245.037 55.7857 245.037 55.7857 245.027C55.7561 245.017 55.7265 245.007 55.687 244.997C55.6771 244.997 55.6771 244.997 55.6672 244.997C55.6376 244.988 55.6178 244.988 55.5882 244.978C55.5783 244.978 55.5685 244.978 55.5685 244.978C55.5388 244.978 55.4993 244.968 55.4697 244.968C55.4401 244.968 55.4006 244.968 55.3709 244.978C55.3611 244.978 55.3512 244.978 55.3512 244.978C55.3216 244.978 55.3018 244.988 55.2722 244.997C55.2623 244.997 55.2623 244.997 55.2524 244.997C55.2228 245.007 55.1932 245.017 55.1537 245.027C55.1537 245.027 55.1438 245.027 55.1438 245.037C55.1142 245.047 55.0944 245.067 55.0648 245.076C55.0648 245.076 55.0549 245.076 55.0549 245.086L38.2664 255.545C38.0392 255.693 37.8911 255.94 37.8911 256.216V256.226C37.8911 256.236 37.8911 256.246 37.8911 256.256C37.901 256.483 37.8911 256.828 37.8812 257.263C37.8417 259.781 37.743 265.035 39.8662 270.407C42.5129 277.113 47.6778 281.725 55.2327 284.115C55.2722 284.125 55.3018 284.134 55.3413 284.144C55.3512 284.144 55.3611 284.144 55.3611 284.144C55.4006 284.144 55.4302 284.154 55.4697 284.154C55.5092 284.154 55.5388 284.154 55.5783 284.144C55.5882 284.144 55.5981 284.144 55.5981 284.144C55.6376 284.134 55.6672 284.134 55.7067 284.115C63.2517 281.725 68.4166 277.113 71.0633 270.407C73.1865 265.035 73.0977 259.781 73.0483 257.263C73.0483 256.828 73.0483 256.483 73.0483 256.256ZM54.6796 282.268C44.6757 278.703 41.2093 271.395 40.0341 265.351H54.6796V282.268ZM71.1719 263.771H56.2597V247.18L71.4682 256.651C71.4682 256.838 71.4781 257.046 71.4781 257.283C71.5077 258.744 71.5472 261.075 71.1719 263.771Z" fill="#100E33"/>
<path d="M78.9737 255.219L70.1153 249.53V243.358C70.1153 242.835 69.6906 242.4 69.1573 242.4H66.1354C65.612 242.4 65.1775 242.825 65.1775 243.358V246.37L55.8944 240.415C55.6475 240.257 55.3413 240.247 55.0846 240.386C55.055 240.405 55.0155 240.425 54.9858 240.445L31.9658 255.229C31.6004 255.466 31.4917 255.95 31.7288 256.325C31.8769 256.562 32.1337 256.69 32.3904 256.69C32.5386 256.69 32.6867 256.651 32.8151 256.562L55.4697 242.015L78.1145 256.552C78.4799 256.789 78.9737 256.68 79.2107 256.315C79.4477 255.95 79.3391 255.456 78.9737 255.219Z" fill="#274DF1"/>
<rect x="503.997" y="413.705" width="80.901" height="80.901" rx="15.1689" fill="#100E33" fill-opacity="0.06"/>
<rect x="503.997" y="413.705" width="80.901" height="80.901" rx="11.6684" fill="white"/>
<path d="M546.255 441.436H541.791C541.268 441.436 540.814 441.811 540.705 442.325C540.695 442.394 540.685 442.463 540.685 442.532V447.341H547.361V442.532C547.361 441.93 546.867 441.436 546.255 441.436Z" fill="#274DF1"/>
<path d="M544.023 450.205C542.976 450.205 542.127 451.055 542.127 452.101C542.127 452.151 542.127 452.2 542.137 452.25C542.137 452.269 542.137 452.289 542.137 452.299C542.137 452.329 542.147 452.368 542.147 452.398C542.246 453.03 542.66 453.563 543.223 453.82V455.252C543.223 455.686 543.579 456.042 544.013 456.042C544.448 456.042 544.803 455.686 544.803 455.252V453.81C545.396 453.533 545.821 452.97 545.9 452.289C545.9 452.269 545.9 452.25 545.9 452.24C545.909 452.19 545.909 452.141 545.909 452.092C545.919 451.055 545.07 450.205 544.023 450.205Z" fill="#100E33"/>
<path d="M564.179 470.184V466.925C564.179 466.49 563.824 466.135 563.389 466.135H554.403V462.263H556.743C561.533 462.263 565.414 458.382 565.414 453.593C565.414 449.445 562.491 445.969 558.6 445.119C558.61 444.971 558.619 444.833 558.619 444.685C558.619 441.772 556.259 439.411 553.346 439.411C552.684 439.411 552.042 439.53 551.46 439.757C551.46 439.638 551.469 439.53 551.469 439.411C551.469 435.135 548.003 431.679 543.737 431.679C539.876 431.679 536.676 434.503 536.093 438.206C535.639 438.157 535.175 438.127 534.711 438.127C528.045 438.127 522.643 443.529 522.643 450.195C522.643 456.792 527.936 462.145 534.503 462.263V466.135H525.516C525.082 466.135 524.726 466.49 524.726 466.925V470.184C523.304 470.539 522.248 471.823 522.248 473.354C522.248 475.161 523.719 476.623 525.516 476.623C527.314 476.623 528.785 475.151 528.785 473.354C528.785 471.823 527.729 470.529 526.306 470.184V467.715H535.293C535.728 467.715 536.083 467.359 536.083 466.925V462.263H537.337H538.957V470.174C537.535 470.529 536.478 471.813 536.478 473.344C536.478 475.151 537.95 476.613 539.747 476.613C541.545 476.613 543.016 475.141 543.016 473.344C543.016 471.813 541.959 470.519 540.537 470.174V462.263H544.665V466.243C544.665 466.678 545.021 467.033 545.455 467.033H548.981V470.174C547.559 470.529 546.502 471.813 546.502 473.344C546.502 475.151 547.974 476.613 549.771 476.613C551.568 476.613 553.04 475.141 553.04 473.344C553.04 471.813 551.983 470.519 550.561 470.174V466.243C550.561 465.809 550.205 465.453 549.771 465.453H546.245V462.263H552.605H552.822V466.925C552.822 467.359 553.178 467.715 553.612 467.715H562.599V470.184C561.177 470.539 560.121 471.823 560.121 473.354C560.121 475.161 561.592 476.623 563.389 476.623C565.187 476.623 566.658 475.151 566.658 473.354C566.658 471.823 565.601 470.539 564.179 470.184ZM550.284 456.743C550.284 457.503 549.672 458.116 548.912 458.116H539.135C538.374 458.116 537.762 457.503 537.762 456.743V448.714C537.762 447.964 538.365 447.351 539.105 447.341V442.532C539.105 442.364 539.125 442.186 539.155 442.018C539.401 440.764 540.508 439.846 541.791 439.846H546.255C547.737 439.846 548.941 441.051 548.941 442.532V447.341C549.692 447.361 550.284 447.964 550.284 448.714V456.743Z" fill="#274DF1"/>
<g filter="url(#filter2_f_71_5466)">
<rect x="257.131" y="214.434" width="105.171" height="105.171" rx="15.1689" fill="#100E33" fill-opacity="0.06"/>
</g>
<rect x="257.131" y="214.434" width="105.171" height="105.171" rx="15.1689" fill="white"/>
<path d="M284.693 280.907V252.592H289.547V280.907H284.693ZM303.775 281.393C301.833 281.393 300.081 280.948 298.516 280.058C296.979 279.141 295.766 277.887 294.876 276.296C294.013 274.678 293.581 272.831 293.581 270.754C293.581 268.624 294.026 266.763 294.916 265.172C295.806 263.554 297.02 262.3 298.557 261.41C300.121 260.493 301.874 260.035 303.815 260.035C305.757 260.035 307.496 260.493 309.034 261.41C310.598 262.3 311.811 263.54 312.674 265.132C313.564 266.723 314.009 268.583 314.009 270.714C314.009 272.844 313.564 274.705 312.674 276.296C311.784 277.887 310.557 279.141 308.993 280.058C307.456 280.948 305.717 281.393 303.775 281.393ZM303.775 277.226C304.746 277.226 305.622 276.984 306.404 276.498C307.213 276.013 307.86 275.285 308.346 274.314C308.831 273.343 309.074 272.143 309.074 270.714C309.074 269.284 308.831 268.098 308.346 267.154C307.887 266.183 307.254 265.455 306.445 264.97C305.663 264.484 304.786 264.242 303.815 264.242C302.872 264.242 301.995 264.484 301.186 264.97C300.377 265.455 299.73 266.183 299.245 267.154C298.759 268.098 298.516 269.284 298.516 270.714C298.516 272.143 298.759 273.343 299.245 274.314C299.73 275.285 300.364 276.013 301.146 276.498C301.955 276.984 302.831 277.226 303.775 277.226ZM324.707 280.907V256.516H316.374V252.592H337.853V256.516H329.52V280.907H324.707Z" fill="#1F1B6A"/>
<path d="M100.386 267.317L257.131 267.317" stroke="#82848F" stroke-width="1.01126" stroke-dasharray="3.57 3.57"/>
<rect x="27.5225" y="439.684" width="80.901" height="80.901" rx="15.1689" fill="#100E33" fill-opacity="0.06"/>
<rect x="27.5225" y="439.684" width="80.901" height="80.901" rx="11.6684" fill="white"/>
<g clip-path="url(#clip1_71_5466)">
<path d="M75.8735 467.81V462.754C75.8735 458.329 72.3973 454.853 67.973 454.853C63.5488 454.853 60.0725 458.329 60.0725 462.754V467.81C58.1764 468.442 56.9124 470.18 56.9124 472.234V478.555C56.9124 481.241 58.9665 483.295 61.6526 483.295H74.2934C76.9796 483.295 79.0337 481.241 79.0337 478.555V472.234C79.0337 470.18 77.7696 468.442 75.8735 467.81ZM69.5531 476.975C69.5531 477.923 68.9211 478.555 67.973 478.555C67.025 478.555 66.3929 477.923 66.3929 476.975V473.814C66.3929 472.866 67.025 472.234 67.973 472.234C68.9211 472.234 69.5531 472.866 69.5531 473.814V476.975ZM72.7133 467.494H63.2327V462.754C63.2327 460.068 65.2869 458.013 67.973 458.013C70.6592 458.013 72.7133 460.068 72.7133 462.754V467.494Z" fill="#274DF1"/>
<path d="M71.9231 491.354L69.553 492.144V489.615C69.553 488.667 68.9209 488.035 67.9729 488.035C67.0248 488.035 66.3928 488.667 66.3928 489.615V492.144L64.0226 491.354C63.2326 491.038 62.2845 491.512 61.9685 492.302C61.6525 493.092 62.1265 494.04 62.9166 494.356L65.2867 495.146L63.7066 497.2C63.2326 497.832 63.3906 498.938 64.0226 499.412C64.3386 499.57 64.6547 499.728 64.9707 499.728C65.4447 499.728 65.9187 499.57 66.2348 499.096L67.8149 497.042L69.395 499.096C69.711 499.57 70.185 499.728 70.659 499.728C70.9751 499.728 71.2911 499.57 71.6071 499.412C72.2391 498.938 72.3971 497.832 71.9231 497.2L70.343 495.146L72.7132 494.356C73.5032 494.04 73.9772 493.25 73.6612 492.302C73.6612 491.512 72.8712 491.196 71.9231 491.354Z" fill="#274DF1"/>
<path d="M89.7783 492.46C89.4622 491.67 88.6722 491.196 87.7241 491.512L85.354 492.144V489.615C85.354 488.667 84.7219 488.035 83.7739 488.035C82.8258 488.035 82.1938 488.667 82.1938 489.615V492.144L79.8236 491.354C79.0336 491.038 78.0855 491.512 77.7695 492.302C77.4535 493.092 77.9275 494.04 78.7176 494.356L81.0877 495.146L79.5076 497.2C79.0336 497.832 79.1916 498.938 79.8236 499.412C80.1397 499.57 80.4557 499.728 80.7717 499.728C81.2457 499.728 81.7198 499.57 82.0358 499.096L83.6159 497.042L85.196 499.096C85.512 499.57 85.986 499.728 86.4601 499.728C86.7761 499.728 87.0921 499.57 87.4081 499.412C88.0402 498.938 88.1982 497.832 87.7241 497.2L86.144 495.146L88.5142 494.356C89.6203 494.198 90.0943 493.25 89.7783 492.46Z" fill="#274DF1"/>
<path d="M56.1222 491.354L53.7521 492.144V489.615C53.7521 488.667 53.12 488.035 52.172 488.035C51.2239 488.035 50.5919 488.667 50.5919 489.615V492.144L48.2217 491.354C47.4317 491.038 46.4836 491.512 46.1676 492.302C45.8516 493.25 46.3256 494.198 47.1156 494.356L49.4858 495.146L47.9057 497.2C47.4317 497.832 47.5897 498.938 48.2217 499.412C48.5377 499.57 48.8538 499.728 49.1698 499.728C49.6438 499.728 50.1178 499.57 50.4339 499.096L52.014 497.042L53.7521 499.096C54.0681 499.57 54.5421 499.728 55.0161 499.728C55.3322 499.728 55.6482 499.57 55.9642 499.412C56.5962 498.938 56.7542 497.832 56.2802 497.2L54.7001 495.146L57.2283 494.356C58.0183 494.04 58.4924 493.25 58.1763 492.302C57.8603 491.512 57.0703 491.196 56.1222 491.354Z" fill="#274DF1"/>
</g>
<path d="M519.048 267.02H362.303" stroke="#82848F" stroke-width="1.01126" stroke-dasharray="3.57 3.57"/>
<rect x="519.048" y="226.569" width="80.901" height="80.901" rx="15.1689" fill="#100E33" fill-opacity="0.06"/>
<rect x="519.048" y="226.569" width="80.901" height="80.901" rx="11.6684" fill="white"/>
<path d="M550.63 261.677H570.945V251.12C570.945 249.461 569.601 248.118 567.942 248.118H539.629C537.97 248.118 536.627 249.461 536.627 251.12V256.374H550.63V261.677ZM563.311 251.663C565.088 251.663 566.54 253.105 566.54 254.893C566.54 256.68 565.098 258.122 563.311 258.122C561.523 258.122 560.091 256.68 560.091 254.893C560.091 253.105 561.533 251.663 563.311 251.663Z" fill="#274DF1"/>
<path d="M574.342 256.374V265.46C574.342 267.257 572.88 268.719 571.083 268.719H568.229C568.229 270.447 567.34 271.968 565.997 272.847L567.271 275.78C566.046 275.898 564.891 276.402 563.962 277.212L562.373 273.548C560.101 273.113 558.393 271.118 558.393 268.719H543.451C541.653 268.719 540.192 267.257 540.192 265.46V257.954H549.05V263.257H572.525V256.374H574.342Z" fill="#100E33"/>
<path d="M538.691 260.176H540.192V264.917H538.691C537.377 264.917 536.321 263.86 536.321 262.546C536.321 261.895 536.587 261.302 537.012 260.877C537.437 260.453 538.039 260.176 538.691 260.176Z" fill="#100E33"/>
<path d="M582.677 271.582V280.836C581.077 280.836 579.665 280.026 578.835 278.782L573.7 281.023C573.572 279.799 573.068 278.643 572.258 277.725L578.174 275.137C578.648 273.103 580.484 271.582 582.677 271.582Z" fill="#100E33"/>
<path d="M570.708 278.407C569.967 277.755 569.009 277.35 567.942 277.32C567.913 277.32 567.873 277.32 567.844 277.32C566.57 277.32 565.424 277.873 564.634 278.752C563.953 279.513 563.538 280.52 563.538 281.616C563.538 283.996 565.464 285.922 567.844 285.922C570.194 285.922 572.1 284.036 572.149 281.705C572.149 281.675 572.149 281.646 572.149 281.616C572.149 280.342 571.586 279.197 570.708 278.407Z" fill="#274DF1"/>
<rect x="506.072" y="11" width="80.901" height="80.901" rx="15.1689" fill="#100E33" fill-opacity="0.06"/>
<rect x="506.072" y="11" width="80.901" height="80.901" rx="11.6684" fill="white"/>
<path fill-rule="evenodd" clip-rule="evenodd" d="M561.692 36.2815V66.6194H531.354V36.2815H561.692ZM544.123 43.866H541.168L535.559 59.0349H538.225L539.284 56.0695H545.998L547.035 59.0349H549.861L544.123 43.866ZM554.592 43.866H551.938V59.0349H554.592V43.866ZM542.623 46.4109L545.268 53.9785H540.021L542.623 46.4109ZM564.22 59.0349H569.276V64.0912H564.22V59.0349ZM533.882 69.1475H538.938V74.2038H533.882V69.1475ZM543.995 69.1475H549.051V74.2038H543.995V69.1475ZM533.882 28.697H538.938V33.7533H533.882V28.697ZM554.107 69.1475H559.164V74.2038H554.107V69.1475ZM543.995 28.697H549.051V33.7533H543.995V28.697ZM554.107 28.697H559.164V33.7533H554.107V28.697ZM564.22 48.9223H569.276V53.9786H564.22V48.9223ZM523.769 59.0349H528.826V64.0912H523.769V59.0349ZM564.22 38.8096H569.276V43.866H564.22V38.8096ZM523.769 48.9223H528.826V53.9786H523.769V48.9223ZM523.769 38.8096H528.826V43.866H523.769V38.8096Z" fill="#274DF1"/>
<defs>
<filter id="filter0_d_71_5466" x="0.461762" y="0.0149662" width="614.045" height="538.7" filterUnits="userSpaceOnUse" color-interpolation-filters="sRGB">
<feFlood flood-opacity="0" result="BackgroundImageFix"/>
<feColorMatrix in="SourceAlpha" type="matrix" values="0 0 0 0 0 0 0 0 0 0 0 0 0 0 0 0 0 0 127 0" result="hardAlpha"/>
<feOffset dy="3.57237"/>
<feGaussianBlur stdDeviation="7.2787"/>
<feComposite in2="hardAlpha" operator="out"/>
<feColorMatrix type="matrix" values="0 0 0 0 0 0 0 0 0 0 0 0 0 0 0 0 0 0 0.1 0"/>
<feBlend mode="normal" in2="BackgroundImageFix" result="effect1_dropShadow_71_5466"/>
<feBlend mode="normal" in="SourceGraphic" in2="effect1_dropShadow_71_5466" result="shape"/>
</filter>
<filter id="filter1_f_71_5466" x="220.423" y="177.726" width="178.589" height="178.589" filterUnits="userSpaceOnUse" color-interpolation-filters="sRGB">
<feFlood flood-opacity="0" result="BackgroundImageFix"/>
<feBlend mode="normal" in="SourceGraphic" in2="BackgroundImageFix" result="shape"/>
<feGaussianBlur stdDeviation="18.3544" result="effect1_foregroundBlur_71_5466"/>
</filter>
<filter id="filter2_f_71_5466" x="220.423" y="177.726" width="178.589" height="178.589" filterUnits="userSpaceOnUse" color-interpolation-filters="sRGB">
<feFlood flood-opacity="0" result="BackgroundImageFix"/>
<feBlend mode="normal" in="SourceGraphic" in2="BackgroundImageFix" result="shape"/>
<feGaussianBlur stdDeviation="18.3544" result="effect1_foregroundBlur_71_5466"/>
</filter>
<clipPath id="clip0_71_5466">
<rect width="50.5631" height="50.5631" fill="white" transform="translate(42.6914 454.853)"/>
</clipPath>
<clipPath id="clip1_71_5466">
<rect width="50.5631" height="50.5631" fill="white" transform="translate(42.6914 454.853)"/>
</clipPath>
</defs>
</svg>
