<svg width="80" height="81" viewBox="0 0 80 81" fill="none" xmlns="http://www.w3.org/2000/svg">
<rect y="0.5" width="80" height="80" rx="15" fill="#100E33" fill-opacity="0.06"/>
<rect y="0.5" width="80" height="80" rx="11.5385" fill="white"/>
<path d="M57.3828 34.6016C57.3828 34.5918 57.3828 34.582 57.3828 34.5723V34.5625C57.3828 34.2891 57.2461 34.0449 57.0117 33.8984L40.4101 23.5566C40.4101 23.5566 40.4004 23.5566 40.4004 23.5469C40.3711 23.5273 40.3515 23.5176 40.3222 23.5078C40.3222 23.5078 40.3125 23.5078 40.3125 23.498C40.2832 23.4883 40.2539 23.4785 40.2148 23.4687C40.2051 23.4687 40.2051 23.4687 40.1953 23.4687C40.166 23.459 40.1465 23.459 40.1172 23.4492C40.1074 23.4492 40.0976 23.4492 40.0976 23.4492C40.0683 23.4492 40.0293 23.4395 40 23.4395C39.9707 23.4395 39.9316 23.4395 39.9023 23.4492C39.8926 23.4492 39.8828 23.4492 39.8828 23.4492C39.8535 23.4492 39.834 23.459 39.8047 23.4687C39.7949 23.4687 39.7949 23.4687 39.7851 23.4687C39.7558 23.4785 39.7265 23.4883 39.6875 23.498C39.6875 23.498 39.6777 23.498 39.6777 23.5078C39.6484 23.5176 39.6289 23.5371 39.5996 23.5469C39.5996 23.5469 39.5898 23.5469 39.5898 23.5566L22.9883 33.8984C22.7636 34.0449 22.6172 34.2891 22.6172 34.5625V34.5723C22.6172 34.582 22.6172 34.5918 22.6172 34.6016C22.6269 34.8262 22.6172 35.168 22.6074 35.5977C22.5683 38.0879 22.4707 43.2832 24.5703 48.5957C27.1875 55.2266 32.2949 59.7871 39.7656 62.1504C39.8047 62.1602 39.834 62.1699 39.873 62.1797C39.8828 62.1797 39.8925 62.1797 39.8925 62.1797C39.9316 62.1797 39.9609 62.1895 40 62.1895C40.039 62.1895 40.0683 62.1895 40.1074 62.1797C40.1172 62.1797 40.1269 62.1797 40.1269 62.1797C40.166 62.1699 40.1953 62.1699 40.2343 62.1504C47.6953 59.7871 52.8027 55.2266 55.4199 48.5957C57.5195 43.2832 57.4316 38.0879 57.3828 35.5977C57.3828 35.168 57.3828 34.8262 57.3828 34.6016ZM39.2187 60.3242C29.3261 56.7988 25.8984 49.5723 24.7363 43.5957H39.2187V60.3242ZM55.5273 42.0332H40.7812V25.627L55.8203 34.9922C55.8203 35.1777 55.8301 35.3828 55.8301 35.6172C55.8594 37.0625 55.8984 39.3672 55.5273 42.0332Z" fill="#100E33"/>
<path d="M63.2423 33.5763L54.4825 27.9513V21.8478C54.4825 21.3302 54.0626 20.9005 53.5352 20.9005H50.5469C50.0294 20.9005 49.5997 21.3204 49.5997 21.8478V24.8263L40.42 18.9376C40.1758 18.7814 39.8731 18.7716 39.6192 18.9083C39.5899 18.9279 39.5508 18.9474 39.5216 18.9669L16.7579 33.5861C16.3966 33.8204 16.2891 34.299 16.5235 34.67C16.67 34.9044 16.9239 35.0314 17.1778 35.0314C17.3243 35.0314 17.4708 34.9923 17.5977 34.9044L40.0001 20.5197L62.3926 34.8947C62.754 35.129 63.2423 35.0216 63.4766 34.6603C63.711 34.299 63.6036 33.8107 63.2423 33.5763Z" fill="#274DF1"/>
</svg>
